<svg width="24" height="26" fill="none" xmlns="http://www.w3.org/2000/svg"><path d="M12.92 20.315l-.934.933-5.007-1.209 1.174 5.042-.87.87-1.344-6.042-5.563-1.184.908-.91 4.554 1.045-1.03-4.568.875-.875 1.155 5.535 6.081 1.363zm-6.048-8.087l.769-.769 3.93 3.93a36.528 36.528 0 011.9 2.035l.038-.038-1.934-9.861.9-.9 7.066 7.068-.773.773-3.891-3.891a37.653 37.653 0 01-1.958-2.122l-.043.043 1.962 9.9-.899.899-7.067-7.067zm16.783-2.649l-.822.822-6.337-6.337-2.238 2.238-.73-.73L18.826.274l.73.73-2.238 2.238 6.337 6.337z" fill="#fff"/></svg>